<?xml version="1.0" encoding="utf-8"?>
<svg xmlns="http://www.w3.org/2000/svg" xmlns:xlink="http://www.w3.org/1999/xlink" style="margin: auto; background: none; display: block; shape-rendering: auto;" width="154px" height="154px" viewBox="0 0 100 100" preserveAspectRatio="xMidYMid">
<g transform="translate(50 50)">
<g>
<animateTransform attributeName="transform" type="rotate" values="0;45" keyTimes="0;1" dur="0.31347962382445144s" repeatCount="indefinite"></animateTransform><path d="M22.956480566497994 -7 L27.956480566497994 -7 L27.956480566497994 7 L22.956480566497994 7 A24 24 0 0 1 21.18243054905376 11.282935612442092 L21.18243054905376 11.282935612442092 L24.717964454986497 14.81846951837483 L14.81846951837483 24.717964454986497 L11.282935612442092 21.18243054905376 A24 24 0 0 1 7.0000000000000036 22.95648056649799 L7.0000000000000036 22.95648056649799 L7.0000000000000036 27.95648056649799 L-7 27.956480566497994 L-7 22.956480566497994 A24 24 0 0 1 -11.282935612442095 21.18243054905376 L-11.282935612442095 21.18243054905376 L-14.818469518374833 24.717964454986497 L-24.717964454986493 14.818469518374837 L-21.182430549053755 11.282935612442099 A24 24 0 0 1 -22.956480566497994 7 L-22.956480566497994 7 L-27.956480566497994 7.000000000000001 L-27.956480566497994 -6.999999999999993 L-22.956480566497994 -6.999999999999994 A24 24 0 0 1 -21.18243054905376 -11.282935612442094 L-21.18243054905376 -11.282935612442094 L-24.717964454986497 -14.818469518374831 L-14.81846951837483 -24.717964454986497 L-11.282935612442092 -21.18243054905376 A24 24 0 0 1 -7.000000000000011 -22.956480566497987 L-7.000000000000011 -22.956480566497987 L-7.0000000000000115 -27.956480566497987 L7.000000000000003 -27.95648056649799 L7.0000000000000036 -22.95648056649799 A24 24 0 0 1 11.282935612442083 -21.182430549053766 L11.282935612442083 -21.182430549053766 L14.818469518374819 -24.717964454986504 L24.717964454986497 -14.81846951837483 L21.18243054905376 -11.282935612442092 A24 24 0 0 1 22.956480566497987 -7.000000000000012 M0 -20A20 20 0 1 0 0 20 A20 20 0 1 0 0 -20" fill="#1d0e0b"></path></g></g>
<!-- [ldio] generated by https://loading.io/ --></svg>